<mxfile host="app.diagrams.net" agent="Mozilla/5.0 (Windows NT 10.0; Win64; x64) AppleWebKit/537.36 (KHTML, like Gecko) Chrome/135.0.0.0 Safari/537.36" version="26.1.0">
  <diagram name="Page-1" id="rtkCgOibKYr5QWcA5fX3">
    <mxGraphModel grid="1" page="1" gridSize="10" guides="1" tooltips="1" connect="1" arrows="1" fold="1" pageScale="1" pageWidth="827" pageHeight="1169" math="0" shadow="0">
      <root>
        <mxCell id="0" />
        <mxCell id="1" parent="0" />
        <mxCell id="92RvCD7ofElB4oKfW6Gt-1" value="Directora General" style="rounded=0;whiteSpace=wrap;html=1;" vertex="1" parent="1">
          <mxGeometry x="330" y="500" width="120" height="60" as="geometry" />
        </mxCell>
        <mxCell id="92RvCD7ofElB4oKfW6Gt-7" style="edgeStyle=orthogonalEdgeStyle;rounded=0;orthogonalLoop=1;jettySize=auto;html=1;exitX=0.5;exitY=0;exitDx=0;exitDy=0;entryX=0;entryY=0.5;entryDx=0;entryDy=0;endArrow=none;startFill=0;" edge="1" parent="1" source="92RvCD7ofElB4oKfW6Gt-3" target="92RvCD7ofElB4oKfW6Gt-1">
          <mxGeometry relative="1" as="geometry" />
        </mxCell>
        <mxCell id="92RvCD7ofElB4oKfW6Gt-3" value="Objectiu Comercial" style="rounded=0;whiteSpace=wrap;html=1;" vertex="1" parent="1">
          <mxGeometry x="120" y="610" width="120" height="60" as="geometry" />
        </mxCell>
        <mxCell id="92RvCD7ofElB4oKfW6Gt-8" style="edgeStyle=orthogonalEdgeStyle;rounded=0;orthogonalLoop=1;jettySize=auto;html=1;exitX=0.5;exitY=0;exitDx=0;exitDy=0;entryX=0.5;entryY=1;entryDx=0;entryDy=0;endArrow=none;startFill=0;" edge="1" parent="1" source="92RvCD7ofElB4oKfW6Gt-4" target="92RvCD7ofElB4oKfW6Gt-1">
          <mxGeometry relative="1" as="geometry" />
        </mxCell>
        <mxCell id="92RvCD7ofElB4oKfW6Gt-4" value="Objectiu Compres, Producció i Logística" style="rounded=0;whiteSpace=wrap;html=1;" vertex="1" parent="1">
          <mxGeometry x="330" y="610" width="120" height="60" as="geometry" />
        </mxCell>
        <mxCell id="92RvCD7ofElB4oKfW6Gt-9" style="edgeStyle=orthogonalEdgeStyle;rounded=0;orthogonalLoop=1;jettySize=auto;html=1;entryX=1;entryY=0.5;entryDx=0;entryDy=0;endArrow=none;startFill=0;" edge="1" parent="1" source="92RvCD7ofElB4oKfW6Gt-6" target="92RvCD7ofElB4oKfW6Gt-1">
          <mxGeometry relative="1" as="geometry">
            <Array as="points">
              <mxPoint x="560" y="530" />
            </Array>
          </mxGeometry>
        </mxCell>
        <mxCell id="92RvCD7ofElB4oKfW6Gt-6" value="Objectiu Recursos Humans" style="rounded=0;whiteSpace=wrap;html=1;" vertex="1" parent="1">
          <mxGeometry x="500" y="610" width="120" height="60" as="geometry" />
        </mxCell>
        <mxCell id="92RvCD7ofElB4oKfW6Gt-11" style="edgeStyle=orthogonalEdgeStyle;rounded=0;orthogonalLoop=1;jettySize=auto;html=1;entryX=0.5;entryY=1;entryDx=0;entryDy=0;" edge="1" parent="1" source="92RvCD7ofElB4oKfW6Gt-10" target="92RvCD7ofElB4oKfW6Gt-3">
          <mxGeometry relative="1" as="geometry" />
        </mxCell>
        <mxCell id="92RvCD7ofElB4oKfW6Gt-10" value="Director&lt;div&gt;Teleoperadors&lt;/div&gt;" style="rounded=1;whiteSpace=wrap;html=1;" vertex="1" parent="1">
          <mxGeometry x="120" y="710" width="120" height="60" as="geometry" />
        </mxCell>
        <mxCell id="92RvCD7ofElB4oKfW6Gt-13" style="edgeStyle=orthogonalEdgeStyle;rounded=0;orthogonalLoop=1;jettySize=auto;html=1;entryX=0.5;entryY=1;entryDx=0;entryDy=0;" edge="1" parent="1" source="92RvCD7ofElB4oKfW6Gt-12" target="92RvCD7ofElB4oKfW6Gt-4">
          <mxGeometry relative="1" as="geometry" />
        </mxCell>
        <mxCell id="92RvCD7ofElB4oKfW6Gt-12" value="Director&lt;div&gt;Operaris&lt;/div&gt;&lt;div&gt;Transport&lt;/div&gt;" style="rounded=1;whiteSpace=wrap;html=1;" vertex="1" parent="1">
          <mxGeometry x="330" y="720" width="120" height="60" as="geometry" />
        </mxCell>
        <mxCell id="92RvCD7ofElB4oKfW6Gt-15" style="edgeStyle=orthogonalEdgeStyle;rounded=0;orthogonalLoop=1;jettySize=auto;html=1;entryX=0.5;entryY=1;entryDx=0;entryDy=0;" edge="1" parent="1" source="92RvCD7ofElB4oKfW6Gt-14" target="92RvCD7ofElB4oKfW6Gt-6">
          <mxGeometry relative="1" as="geometry" />
        </mxCell>
        <mxCell id="92RvCD7ofElB4oKfW6Gt-14" value="&lt;div&gt;Director&lt;/div&gt;Administratius" style="rounded=1;whiteSpace=wrap;html=1;" vertex="1" parent="1">
          <mxGeometry x="500" y="720" width="120" height="60" as="geometry" />
        </mxCell>
        <mxCell id="92RvCD7ofElB4oKfW6Gt-17" value="Venta" style="rounded=0;whiteSpace=wrap;html=1;" vertex="1" parent="1">
          <mxGeometry x="200" y="980" width="120" height="60" as="geometry" />
        </mxCell>
        <mxCell id="92RvCD7ofElB4oKfW6Gt-19" value="Transport" style="rounded=0;whiteSpace=wrap;html=1;" vertex="1" parent="1">
          <mxGeometry x="400" y="980" width="120" height="60" as="geometry" />
        </mxCell>
        <mxCell id="92RvCD7ofElB4oKfW6Gt-23" style="edgeStyle=orthogonalEdgeStyle;rounded=0;orthogonalLoop=1;jettySize=auto;html=1;entryX=0.5;entryY=1;entryDx=0;entryDy=0;" edge="1" parent="1" source="92RvCD7ofElB4oKfW6Gt-20" target="92RvCD7ofElB4oKfW6Gt-17">
          <mxGeometry relative="1" as="geometry" />
        </mxCell>
        <mxCell id="92RvCD7ofElB4oKfW6Gt-20" value="Encarregat&lt;div&gt;Venedors&lt;/div&gt;" style="rounded=1;whiteSpace=wrap;html=1;" vertex="1" parent="1">
          <mxGeometry x="200" y="1070" width="120" height="60" as="geometry" />
        </mxCell>
        <mxCell id="92RvCD7ofElB4oKfW6Gt-22" style="edgeStyle=orthogonalEdgeStyle;rounded=0;orthogonalLoop=1;jettySize=auto;html=1;entryX=0.5;entryY=1;entryDx=0;entryDy=0;" edge="1" parent="1" source="92RvCD7ofElB4oKfW6Gt-21" target="92RvCD7ofElB4oKfW6Gt-19">
          <mxGeometry relative="1" as="geometry" />
        </mxCell>
        <mxCell id="92RvCD7ofElB4oKfW6Gt-21" value="Transportista" style="rounded=1;whiteSpace=wrap;html=1;" vertex="1" parent="1">
          <mxGeometry x="400" y="1070" width="120" height="60" as="geometry" />
        </mxCell>
      </root>
    </mxGraphModel>
  </diagram>
</mxfile>
